<?xml version="1.0" encoding="UTF-8"?>
<svg version="1.1" xmlns="http://www.w3.org/2000/svg" width="655" height="737">
<path d="M0 0 C216.15 0 432.3 0 655 0 C655 243.21 655 486.42 655 737 C438.85 737 222.7 737 0 737 C0 493.79 0 250.58 0 0 Z " fill="#000000" transform="translate(0,0)"/>
<path d="M0 0 C1.30710937 -0.01611328 2.61421875 -0.03222656 3.9609375 -0.04882812 C12.88185387 -0.05325318 20.99278419 1.10363477 29.625 3.3125 C30.75389648 3.59230713 31.88279297 3.87211426 33.04589844 4.16040039 C46.26190373 7.56494432 60.48303149 15.5265814 67.9375 27.1875 C73.4864118 37.10155575 73.68724937 46.97599036 71.33203125 57.97265625 C70.64918835 60.23245126 69.78844759 61.87336193 68.5625 63.875 C61.5399922 77.22533069 65.5495322 100.36862004 65.625 114.9375 C65.86193453 160.80125585 65.86193453 160.80125585 59.625 167.3125 C43.94347624 182.84552448 20.32972093 186.22448638 -0.875 186.5625 C-17.88909094 186.25674995 -33.78911685 183.25530249 -49.375 176.3125 C-49.375 175.6525 -49.375 174.9925 -49.375 174.3125 C-50.035 174.126875 -50.695 173.94125 -51.375 173.75 C-58.01525383 170.56821171 -62.4425987 166.0445097 -65.375 159.3125 C-66.93642877 149.7655826 -66.49852751 139.79633836 -66.4375 130.1484375 C-66.43307545 128.73988009 -66.42926408 127.33132064 -66.42602539 125.92276001 C-66.41475447 121.51097658 -66.39551247 117.09924888 -66.375 112.6875 C-66.35119005 107.55757624 -66.33087753 102.42768463 -66.31906128 97.29771805 C-66.31269474 95.27287315 -66.30012202 93.24805073 -66.28735352 91.22323608 C-65.81859438 76.21289803 -65.81859438 76.21289803 -70.38671875 62.29296875 C-74.98417612 53.07988225 -74.41033628 41.72107842 -71.4375 32.1875 C-66.358892 19.32262836 -55.51377581 12.81849068 -43.375 7.3125 C-29.27926262 1.62624472 -15.12094197 -0.03706113 0 0 Z " fill="#C0A461" transform="translate(325.375,177.6875)"/>
<path d="M0 0 C1.24007812 0.00418945 2.48015625 0.00837891 3.7578125 0.01269531 C12.64669916 0.12229071 20.7429995 0.81485664 29.3125 3.3125 C30.88257813 3.73015625 30.88257813 3.73015625 32.484375 4.15625 C44.82496506 7.78952017 54.87604197 14.44136479 61.25 25.75 C63.31972387 32.68966238 63.0208818 37.9969338 59.578125 44.390625 C51.27933807 56.99248663 35.56212996 62.94895098 21.3125 66.3125 C-1.64432928 70.55068387 -28.13727201 67.80485061 -47.75 54.5 C-53.35496596 50.15636021 -57.43431354 45.07205939 -59.6875 38.3125 C-60.67868303 30.07430665 -58.11372207 25.06923095 -53.75 18.3125 C-40.73600349 3.75110756 -18.41906217 -0.08462812 0 0 Z " fill="#C4A964" transform="translate(323.6875,185.6875)"/>
<path d="M0 0 C9.24 0 18.48 0 28 0 C28.88846276 6.04838108 29.77586762 12.0969038 30.66113281 18.14575195 C30.95911194 20.18000839 31.25757343 22.21419426 31.55664062 24.24829102 C34.82493639 46.48277577 37.89410505 68.7410862 41 91 C41.33 60.97 41.66 30.94 42 0 C47.94 0 53.88 0 60 0 C60.02293564 11.59978994 60.04113129 23.1995639 60.05181217 34.79937172 C60.0569481 40.19031262 60.0638678 45.58123673 60.07543945 50.97216797 C60.13195467 78.00055183 59.8895239 104.98534985 59 132 C50.09 132 41.18 132 32 132 C29.75 123 29.75 123 29.30392456 119.88696289 C29.20041121 119.17903091 29.09689785 118.47109894 28.99024773 117.74171448 C28.88502359 116.99292526 28.77979946 116.24413605 28.67138672 115.47265625 C28.55219942 114.64898056 28.43301212 113.82530487 28.31021309 112.97666931 C27.92950919 110.33915136 27.55446779 107.70086544 27.1796875 105.0625 C26.9438167 103.42247193 26.70757134 101.78249768 26.47094727 100.14257812 C25.6011022 94.09570189 24.73847963 88.04778848 23.875 82 C21.93625 68.47 19.9975 54.94 18 41 C17.67 71.03 17.34 101.06 17 132 C11.39 132 5.78 132 0 132 C0 88.44 0 44.88 0 0 Z " fill="#E8DB8E" transform="translate(295,411)"/>
<path d="M0 0 C34.76190476 0 34.76190476 0 45 10 C50.16511121 16.59166573 51.15007058 21.97625029 51.14526367 30.25341797 C51.14862228 31.08317139 51.1519809 31.9129248 51.15544128 32.76782227 C51.16493577 35.5092926 51.16689365 38.25070175 51.16796875 40.9921875 C51.17118239 42.90023829 51.17454654 44.80828884 51.17805481 46.71633911 C51.18404233 50.71600923 51.1858951 54.71565775 51.18530273 58.71533203 C51.18520114 63.83542441 51.19885255 68.95537804 51.21607494 74.07543755 C51.22720431 78.01657749 51.22922165 81.95768399 51.22869301 85.89883804 C51.22987174 87.78624067 51.23428751 89.6736442 51.24202538 91.56103134 C51.25184404 94.20338352 51.2489398 96.84543576 51.24291992 99.48779297 C51.24853943 100.26410065 51.25415894 101.04040833 51.25994873 101.84024048 C51.21102785 110.30866183 48.36882526 116.5872365 43 123 C30.75300937 133.84273043 16.00456266 131 0 131 C0 87.77 0 44.54 0 0 Z " fill="#C8B06A" transform="translate(373,412)"/>
<path d="M0 0 C7.92 0 15.84 0 24 0 C26.25000793 7.87502775 26.25000793 7.87502775 26.81428528 11.10134888 C26.94443527 11.83474991 27.07458527 12.56815094 27.2086792 13.32377625 C27.41052826 14.4940612 27.41052826 14.4940612 27.61645508 15.68798828 C27.83893166 16.95101021 27.83893166 16.95101021 28.06590271 18.23954773 C28.55401341 21.01585687 29.03680618 23.79306232 29.51953125 26.5703125 C29.86310369 28.53113227 30.20699698 30.49189584 30.55119324 32.4526062 C31.45842158 37.62596741 32.36109892 42.80011288 33.26287842 47.97442627 C34.16260506 53.13189318 35.06689606 58.28855939 35.97070312 63.4453125 C37.52196637 72.299941 39.06723544 81.15559909 40.60818672 90.01202774 C41.48223591 95.03392591 42.35991734 100.05515695 43.2430582 105.07546425 C43.61215528 107.17542246 43.97982526 109.27562431 44.34684753 111.37594604 C44.77505225 113.82571377 45.20562264 116.27506977 45.63911438 118.72390747 C45.82225693 119.7764975 46.00539948 120.82908752 46.1940918 121.91357422 C46.35145309 122.80922089 46.50881439 123.70486755 46.67094421 124.62765503 C47 127 47 127 47 131 C41.39 131 35.78 131 30 131 C28.55474217 125.94159758 27.44963323 121.21489214 26.7109375 116.0546875 C26.60278717 115.32178497 26.49463684 114.58888245 26.38320923 113.83377075 C26.15747196 112.29625438 25.93406257 110.75839457 25.71289062 109.22021484 C25.37481311 106.87370282 25.02779135 104.52863704 24.6796875 102.18359375 C24.46040572 100.68236925 24.24163794 99.18106955 24.0234375 97.6796875 C23.86879532 96.63577347 23.86879532 96.63577347 23.71102905 95.57077026 C23.19797876 91.96739056 23 88.6650087 23 85 C16.73 85 10.46 85 4 85 C3.896875 87.165625 3.79375 89.33125 3.6875 91.5625 C3.27422959 98.78699306 2.47950401 105.94837235 1.5625 113.125 C1.44028076 114.10799072 1.31806152 115.09098145 1.19213867 116.10375977 C1.06814697 117.04147217 0.94415527 117.97918457 0.81640625 118.9453125 C0.70756104 119.77562988 0.59871582 120.60594727 0.48657227 121.46142578 C0 124 0 124 -2 130 C-7.61 130 -13.22 130 -19 130 C-17.1044096 111.7210926 -17.1044096 111.7210926 -15.43359375 105.05078125 C-14.7373003 101.7575014 -14.55294503 98.43124679 -14.29248047 95.07983398 C-14.00226727 92.02387442 -13.57825354 89.02372123 -13.09765625 85.9921875 C-12.91928223 84.85587891 -12.7409082 83.71957031 -12.55712891 82.54882812 C-12.2813501 80.7921582 -12.2813501 80.7921582 -12 79 C-11.6534362 76.71637474 -11.30837154 74.43252144 -10.96484375 72.1484375 C-10.62239583 69.890625 -10.27994792 67.6328125 -9.9375 65.375 C-9.76412109 64.21871094 -9.59074219 63.06242187 -9.41210938 61.87109375 C-9.15977539 60.21400391 -9.15977539 60.21400391 -8.90234375 58.5234375 C-8.75273193 57.53263184 -8.60312012 56.54182617 -8.44897461 55.52099609 C-8 53 -8 53 -7 50 C-6.67093526 47.82588703 -6.37693277 45.64640787 -6.1015625 43.46484375 C-5.92686851 42.10781188 -5.75137677 40.75088253 -5.57519531 39.39404297 C-5.4824231 38.67802917 -5.38965088 37.96201538 -5.29406738 37.2243042 C-4.79357791 33.43863842 -4.25256263 29.65887164 -3.7109375 25.87890625 C-3.60162903 25.11484467 -3.49232056 24.35078308 -3.37969971 23.56356812 C-3.04537955 21.22979519 -2.7102117 18.89614501 -2.375 16.5625 C-2.14316259 14.944671 -1.91139142 13.3268325 -1.6796875 11.70898438 C-1.12067258 7.80586232 -0.56031204 3.90293692 0 0 Z " fill="#C3A864" transform="translate(229,412)"/>
<path d="M0 0 C5.94 0 11.88 0 18 0 C21.10764174 8.90994959 23.61533713 17.98744255 26.1875 27.0625 C26.65541383 28.70773495 27.12351123 30.35291771 27.59179688 31.99804688 C28.72998331 35.99809887 29.86567809 39.99885049 31 44 C33.1845672 40.7231492 34.19755552 37.53712528 35.3125 33.8125 C35.75380108 32.36975949 36.19521049 30.92705212 36.63671875 29.484375 C36.86149902 28.74380859 37.0862793 28.00324219 37.31787109 27.24023438 C38.40324237 23.67567932 39.51337444 20.11893925 40.625 16.5625 C40.83253906 15.89710205 41.04007812 15.2317041 41.25390625 14.54614258 C42.77686088 9.67647073 44.36070193 4.83161536 46 0 C51.94 0 57.88 0 64 0 C62.27838177 7.24891888 60.31036827 14.35842079 58.04370117 21.45239258 C56.28324284 26.99883841 54.69210357 32.58374486 53.125 38.1875 C50.77933917 46.54002202 48.16006585 54.77420078 45.35986328 62.98510742 C45.08126465 63.80213135 44.80266602 64.61915527 44.515625 65.4609375 C44.27102539 66.17040527 44.02642578 66.87987305 43.77441406 67.61083984 C43.51885742 68.3992627 43.26330078 69.18768555 43 70 C42.64728027 70.99088623 42.29456055 71.98177246 41.93115234 73.00268555 C40.42196606 78.38280164 40.64188988 83.94961267 40.5859375 89.49609375 C40.56657135 90.68477554 40.5472052 91.87345734 40.5272522 93.09815979 C40.46768911 96.8778679 40.4211637 100.65760684 40.375 104.4375 C40.33679886 107.00717441 40.29774589 109.5768363 40.2578125 112.14648438 C40.16200649 118.43088742 40.07788925 124.71535039 40 131 C34.06 131 28.12 131 22 131 C22.07968018 129.71617432 22.15936035 128.43234863 22.24145508 127.10961914 C24.44908615 86.25991517 15.71202525 51.58758398 3.17593384 13.06474304 C2.96197307 12.40427192 2.74801229 11.74380079 2.52756786 11.06331539 C1.95278214 9.29483688 1.37188001 7.52834955 0.79051208 5.76202393 C0 3 0 3 0 0 Z " fill="#A0763A" transform="translate(443,412)"/>
<path d="M0 0 C6.27023157 3.50893722 10.67950673 9.06329597 12.6875 16 C13.77538447 20.89548013 13.6875 24.78791811 13.6875 30 C7.7475 30 1.8075 30 -4.3125 30 C-4.47526042 27.49348958 -4.63802083 24.98697917 -4.80078125 22.48046875 C-5.38266963 19.65986475 -6.07491825 18.74897829 -8.3125 17 C-10.1647367 15.99521963 -10.1647367 15.99521963 -12.3125 16 C-15.04301231 16.86302504 -15.04301231 16.86302504 -17.3125 19 C-17.82084788 21.94292047 -17.98687237 24.31605816 -17.94360352 27.26342773 C-17.95075882 28.10600128 -17.95791412 28.94857483 -17.96528625 29.81668091 C-17.98221617 32.60620089 -17.96274467 35.39412323 -17.94140625 38.18359375 C-17.94223463 40.12028639 -17.94469286 42.05697896 -17.94871521 43.9936676 C-17.95157625 48.05499404 -17.93684359 52.11576992 -17.90942383 56.17700195 C-17.87536328 61.38389328 -17.88134882 66.58979839 -17.9000864 71.79673672 C-17.91065453 75.79706544 -17.90171988 79.79716462 -17.88670158 83.797472 C-17.8815164 85.71721782 -17.88200564 87.63698759 -17.88824654 89.55673027 C-17.89369558 92.24073695 -17.87333345 94.92333189 -17.84594727 97.60717773 C-17.85247314 98.40159775 -17.85899902 99.19601776 -17.86572266 100.01451111 C-17.80460108 103.53639117 -17.57342011 105.63157542 -15.51353455 108.54017639 C-13.22970675 110.37550043 -13.22970675 110.37550043 -9.5625 109.75 C-7.95375 109.37875 -7.95375 109.37875 -6.3125 109 C-6.3125 108.34 -6.3125 107.68 -6.3125 107 C-5.6525 107 -4.9925 107 -4.3125 107 C-4.3125 102.05 -4.3125 97.1 -4.3125 92 C1.6275 92 7.5675 92 13.6875 92 C14.05113636 109.27272727 14.05113636 109.27272727 10.6875 116 C10.0275 116 9.3675 116 8.6875 116 C8.55408203 116.89332031 8.55408203 116.89332031 8.41796875 117.8046875 C7.06005691 121.88568458 3.194195 123.78387305 -0.3125 126 C-6.22286184 128.88951023 -13.53939195 129.28560734 -19.77734375 127.16015625 C-26.02118413 123.99020652 -31.14141504 119.17809657 -34.38545227 112.93518066 C-35.65841851 108.90476693 -35.58340458 105.17659588 -35.55541992 100.97460938 C-35.55731827 100.07482864 -35.55921661 99.17504791 -35.56117249 98.2480011 C-35.56487091 95.27982818 -35.55418874 92.31190111 -35.54296875 89.34375 C-35.54177624 87.27779163 -35.54132394 85.21183272 -35.5415802 83.14587402 C-35.54001691 78.81840617 -35.53173921 74.49102122 -35.51831055 70.16357422 C-35.50132104 64.61858641 -35.49749634 59.07368968 -35.49825573 53.52867889 C-35.4979837 49.26331718 -35.49249714 44.99797534 -35.48525429 40.73262024 C-35.48207387 38.68809662 -35.48010168 36.64357076 -35.47936058 34.5990448 C-35.47719039 31.74112112 -35.46843137 28.88329361 -35.45776367 26.02539062 C-35.45821686 25.18160355 -35.45867004 24.33781647 -35.45913696 23.46846008 C-35.43756817 19.51291669 -35.29175079 15.86160777 -34.3125 12 C-33.6525 12 -32.9925 12 -32.3125 12 C-32.085625 11.0925 -31.85875 10.185 -31.625 9.25 C-29.55274679 4.11870634 -25.94959682 2.18642163 -21.1875 -0.25 C-13.97926517 -3.25044269 -7.13862327 -3.1620028 0 0 Z " fill="#986B31" transform="translate(178.3125,414)"/>
<path d="M0 0 C0.66 0.33 1.32 0.66 2 1 C-4.56447199 5.88278703 -11.24421419 10.57480072 -18 15.1875 C-18.80880615 15.73986328 -19.6176123 16.29222656 -20.45092773 16.86132812 C-24.62528588 19.70824283 -28.80585328 22.54572893 -32.9921875 25.375 C-41.05435464 30.83716634 -48.91418683 36.39894213 -56.57421875 42.4140625 C-61.47776991 46.18557198 -66.65095244 49.57670698 -71.7746582 53.03857422 C-77.02130314 56.60042079 -82.14170455 60.28454386 -87.1875 64.125 C-92.9691084 68.52412781 -98.85703782 72.70895005 -104.86669922 76.79003906 C-109.91631836 80.22833834 -114.87462896 83.77841149 -119.8125 87.375 C-126.0324079 91.90193113 -132.32173285 96.30569295 -138.6875 100.625 C-144.95487546 104.87935265 -151.12174837 109.23291119 -157.203125 113.74853516 C-163.48229335 118.39532273 -169.88875192 122.8568834 -176.30053711 127.31811523 C-177.51882202 128.16611694 -177.51882202 128.16611694 -178.76171875 129.03125 C-179.48319092 129.53205078 -180.20466309 130.03285156 -180.94799805 130.54882812 C-183.05518985 131.97141322 -183.05518985 131.97141322 -184.95239258 133.81054688 C-187 135 -187 135 -189.22167969 134.53686523 C-193.123304 132.37862929 -196.77810937 129.93153849 -200.453125 127.41015625 C-201.28833176 126.84312485 -202.12353851 126.27609344 -202.98405457 125.69187927 C-204.792742 124.46365205 -206.6000808 123.23343701 -208.40621948 122.00146484 C-213.28001633 118.67838112 -218.16545633 115.37250953 -223.05078125 112.06640625 C-224.05258926 111.38812775 -225.05439728 110.70984924 -226.08656311 110.01101685 C-235.8193551 103.42967544 -245.61654892 96.94880832 -255.4375 90.5 C-256.26284241 89.95780823 -257.08818481 89.41561646 -257.9385376 88.85699463 C-261.31441225 86.63953327 -264.6906978 84.4227004 -268.06774902 82.20703125 C-277.63325682 75.93098049 -287.1863552 69.63612301 -296.73855591 63.33984375 C-299.53295365 61.49816419 -302.3278317 59.65721562 -305.12280273 57.81640625 C-309.31365752 55.0559595 -313.50132734 52.29072598 -317.68811035 49.52410889 C-319.94195686 48.03826483 -322.20044394 46.55972173 -324.45996094 45.08251953 C-325.81453636 44.19185835 -327.16903351 43.3010781 -328.5234375 42.41015625 C-329.1272525 42.01823593 -329.7310675 41.62631561 -330.35317993 41.22251892 C-333.60337641 39.07627728 -336.29761131 36.7924201 -339 34 C-340.19680404 33.10319484 -341.42092525 32.24146277 -342.671875 31.421875 C-343.66767578 30.76445313 -343.66767578 30.76445313 -344.68359375 30.09375 C-345.36550781 29.6503125 -346.04742187 29.206875 -346.75 28.75 C-347.44738281 28.29109375 -348.14476562 27.8321875 -348.86328125 27.359375 C-350.57274211 26.23534594 -352.28599512 25.11708776 -354 24 C-353.67 23.34 -353.34 22.68 -353 22 C-336.04521322 31.67063591 -319.11323239 41.37909302 -302.21337891 51.14550781 C-298.99213087 53.0045414 -295.76799185 54.85846163 -292.54296875 56.7109375 C-280.38764166 63.69795885 -268.2933474 70.77682985 -256.24633789 77.94897461 C-247.06968529 83.39821017 -237.81570082 88.70014891 -228.53369141 93.96679688 C-222.44556816 97.43006462 -216.388602 100.93604688 -210.375 104.52734375 C-209.75270508 104.8986441 -209.13041016 105.26994446 -208.48925781 105.65249634 C-205.49721216 107.43962518 -202.50953091 109.23357997 -199.52734375 111.03710938 C-198.46644531 111.67326172 -197.40554688 112.30941406 -196.3125 112.96484375 C-195.38050781 113.5280835 -194.44851563 114.09132324 -193.48828125 114.67163086 C-190.39054111 116.35571275 -190.39054111 116.35571275 -187 117 C-184.61678448 115.99515787 -184.61678448 115.99515787 -182.203125 114.34375 C-181.25711426 113.74119385 -180.31110352 113.1386377 -179.33642578 112.51782227 C-178.31790527 111.85194092 -177.29938477 111.18605957 -176.25 110.5 C-174.06529119 109.10257216 -171.88039013 107.70544483 -169.6953125 106.30859375 C-168.56783901 105.58217081 -167.4405602 104.85544563 -166.31347656 104.12841797 C-161.27886488 100.89442558 -156.20286514 97.72797185 -151.125 94.5625 C-150.14539307 93.94979248 -149.16578613 93.33708496 -148.15649414 92.70581055 C-139.58894023 87.35082825 -130.98110411 82.06230922 -122.37084961 76.77636719 C-115.17957201 72.35612495 -108.025472 67.88201732 -100.89794922 63.35986328 C-95.22602263 59.76436454 -89.52607854 56.2163965 -83.8125 52.6875 C-75.98715041 47.85378588 -68.17529769 42.99905009 -60.375 38.125 C-59.40409424 37.51873779 -58.43318848 36.91247559 -57.43286133 36.2878418 C-52.66312669 33.30558168 -47.90669895 30.3047516 -43.16796875 27.2734375 C-39.47417588 24.91823303 -35.75405957 22.65264943 -31.9375 20.5 C-28.25031073 18.37077803 -24.71278425 16.16423178 -21.25 13.6875 C-16.75617126 10.47867131 -12.158642 7.46209745 -7.5 4.5 C-6.79262695 4.04197998 -6.08525391 3.58395996 -5.35644531 3.11206055 C-3.60942504 2.01116653 -1.80827671 0.99708716 0 0 Z " fill="#D0BB74" transform="translate(513,585)"/>
<path d="M0 0 C1.04043457 0.56340088 2.08086914 1.12680176 3.15283203 1.70727539 C4.25739746 2.31176514 5.36196289 2.91625488 6.5 3.5390625 C8.2322583 4.47963501 8.2322583 4.47963501 9.99951172 5.43920898 C13.5028728 7.34166114 17.00152342 9.25264317 20.5 11.1640625 C22.41914453 12.20986723 24.33840641 13.25545665 26.2578125 14.30078125 C29.84408024 16.25483946 33.4283236 18.21255499 37.01171875 20.171875 C40.7997828 22.24081943 44.59462366 24.29664078 48.39453125 26.34375 C58.1542771 31.60368767 67.87220061 36.91587152 77.5 42.4140625 C87.5301927 48.13604359 97.70280275 53.5655474 107.91088867 58.96057129 C117.83772973 64.20721623 127.71785326 69.51797227 137.49560547 75.0390625 C139.68948613 76.27041477 141.89282127 77.48369219 144.09765625 78.6953125 C145.58596926 79.51817172 147.07425165 80.34108634 148.5625 81.1640625 C149.24892578 81.53853516 149.93535156 81.91300781 150.64257812 82.29882812 C155.38687511 84.93781272 155.38687511 84.93781272 156.5 87.1640625 C152.91710408 86.56585252 149.96330034 85.59700219 146.6875 84.0390625 C142.0283443 81.86311764 137.34207007 79.77247999 132.625 77.7265625 C126.65596009 75.12925571 120.73788709 72.43836304 114.8359375 69.69140625 C109.92502187 67.44296596 104.9679685 65.30522819 100.0078125 63.16796875 C94.17827313 60.60984112 88.42862861 57.87592475 82.66387939 55.17599487 C62.30246909 45.65403616 41.89883165 36.21934908 21.4375 26.9140625 C20.46299896 26.47030273 20.46299896 26.47030273 19.46881104 26.01757812 C16.39063963 24.61666532 13.30951508 23.22555365 10.21826172 21.85351562 C7.55332849 20.66315918 4.94089448 19.39340562 2.33251953 18.08398438 C-5.47773342 13.81792069 -5.47773342 13.81792069 -13.94921875 13.74609375 C-15.48743514 14.51067032 -17.00123212 15.32478791 -18.5 16.1640625 C-20.35951661 17.0033764 -22.21957449 17.8415765 -24.08534241 18.66690063 C-27.05103772 19.98975086 -29.99069052 21.36646425 -32.93289185 22.74060059 C-37.04910853 24.66232873 -41.17288851 26.56767171 -45.296875 28.47265625 C-46.14395523 28.86417877 -46.99103546 29.25570129 -47.86378479 29.65908813 C-56.55680762 33.66789885 -65.30531898 37.54794764 -74.0625 41.4140625 C-85.70237438 46.55680553 -97.27811727 51.80800193 -108.79980469 57.21166992 C-115.49916272 60.34137147 -122.22676255 63.39403857 -128.98828125 66.38671875 C-129.80287811 66.74732391 -130.61747498 67.10792908 -131.45675659 67.47946167 C-135.47154368 69.25465698 -139.4890346 71.02346738 -143.50976562 72.78515625 C-144.98178888 73.43355278 -146.4537949 74.08198843 -147.92578125 74.73046875 C-148.58814285 75.01849869 -149.25050446 75.30652863 -149.93293762 75.60328674 C-154.30052217 77.53171333 -158.37436439 79.76101207 -162.5 82.1640625 C-164.21091741 82.93507678 -165.93884716 83.67044971 -167.6875 84.3515625 C-168.50605469 84.67511719 -169.32460937 84.99867187 -170.16796875 85.33203125 C-172.26671316 86.08082951 -174.3290385 86.66998161 -176.5 87.1640625 C-172.03992303 81.95584359 -166.5824647 79.24688921 -160.5625 76.1015625 C-158.38648752 74.94444515 -156.21071116 73.78688367 -154.03515625 72.62890625 C-152.9383252 72.04866699 -151.84149414 71.46842773 -150.71142578 70.87060547 C-145.95234642 68.34164357 -141.22612928 65.75391747 -136.5 63.1640625 C-127.83156111 58.42835994 -119.14824808 53.72050523 -110.4609375 49.01953125 C-103.80027406 45.41382326 -97.14737597 41.79420254 -90.5 38.1640625 C-76.8039635 30.68554877 -63.07856925 23.26132009 -49.3515625 15.83984375 C-48.34061523 15.29263672 -47.32966797 14.74542969 -46.28808594 14.18164062 C-44.27968716 13.09577539 -42.26994158 12.01239709 -40.25878906 10.93164062 C-35.38050967 8.30301404 -30.54296557 5.62706659 -25.7578125 2.83203125 C-24.8493457 2.30883301 -23.94087891 1.78563477 -23.00488281 1.24658203 C-21.29900109 0.2606166 -19.60228868 -0.74145435 -17.91699219 -1.76220703 C-17.15805664 -2.19774902 -16.39912109 -2.63329102 -15.6171875 -3.08203125 C-14.96347168 -3.47060303 -14.30975586 -3.8591748 -13.63623047 -4.25952148 C-8.85494118 -5.54964994 -4.11191845 -2.23859886 0 0 Z " fill="#D1BC74" transform="translate(335.5,24.8359375)"/>
<path d="M0 0 C1.70984985 0.36489092 3.42642689 0.69791171 5.14355469 1.02685547 C19.54295065 4.10152755 32.4777319 11.43073526 41.12402344 23.51123047 C44.58822609 29.15293193 45.41776118 34.31266116 44.56152344 40.78857422 C42.47386946 49.06507225 36.8973938 55.73821598 29.90136719 60.40576172 C2.90816395 76.29090412 -28.45825697 78.0504744 -58.48144531 70.56201172 C-72.96475495 66.17542186 -85.6833307 58.84304484 -93.09863281 45.40576172 C-95.63674593 39.22600803 -95.6348492 33.46108175 -93.27441406 27.22998047 C-90.62832137 21.67632348 -87.38248549 16.75220175 -82.09863281 13.40576172 C-81.43863281 13.40576172 -80.77863281 13.40576172 -80.09863281 13.40576172 C-80.09863281 12.74576172 -80.09863281 12.08576172 -80.09863281 11.40576172 C-54.55126051 -1.4773685 -28.11859577 -6.01767733 0 0 Z M-56.09863281 6.40576172 C-57.16726563 6.76798828 -58.23589844 7.13021484 -59.33691406 7.50341797 C-70.32091337 11.62067311 -79.62116821 17.80624052 -85.09863281 28.40576172 C-86.94039287 33.93104188 -86.94186591 39.28688587 -84.41113281 44.59326172 C-77.22036209 57.07860677 -64.79060966 63.2233963 -51.23730469 66.90209961 C-42.4087668 68.98124044 -33.77935254 69.76681974 -24.72363281 69.71826172 C-23.08346191 69.71088989 -23.08346191 69.71088989 -21.41015625 69.70336914 C-3.85407059 69.44917871 14.18347204 64.69460418 27.71386719 52.96826172 C32.9758693 46.8042021 36.30024101 42.13966724 36.17871094 33.80810547 C35.27132551 25.94835842 29.60260473 19.36802585 23.63183594 14.58935547 C2.07700687 -0.37299214 -31.92149698 -2.23905238 -56.09863281 6.40576172 Z " fill="#0B0804" transform="translate(350.0986328125,183.59423828125)"/>
<path d="M0 0 C10 0 10 0 13.0625 2.3125 C16.17497116 6.6297987 16.14852826 10.30164712 16.14526367 15.42138672 C16.14862228 16.17457184 16.1519809 16.92775696 16.15544128 17.70376587 C16.16494665 20.19575649 16.16689423 22.68767988 16.16796875 25.1796875 C16.17118176 26.91220121 16.17454587 28.64471465 16.17805481 30.37722778 C16.18404514 34.01044341 16.18589482 37.64363525 16.18530273 41.27685547 C16.18520115 45.92962268 16.19884993 50.58223716 16.21607494 55.23496819 C16.22720062 58.8140635 16.22922176 62.39312198 16.22869301 65.97223282 C16.2298724 67.68741507 16.23429189 69.4025983 16.24202538 71.11776352 C16.25183613 73.51855878 16.24894293 75.91902349 16.24291992 78.31982422 C16.24853943 79.02649231 16.25415894 79.7331604 16.25994873 80.46124268 C16.22943426 85.25424893 15.64962291 88.99176342 12.5625 92.75 C8.57654246 95.93876603 5.33627262 95 0 95 C0 63.65 0 32.3 0 0 Z " fill="#000000" transform="translate(391,430)"/>
<path d="M0 0 C2.31 0 4.62 0 7 0 C7 1.98 7 3.96 7 6 C8.010625 5.95875 9.02125 5.9175 10.0625 5.875 C14.18076052 6.00573843 17.11830533 6.73250786 21 8 C20.125 12.75 20.125 12.75 19 15 C17.2365625 14.7834375 17.2365625 14.7834375 15.4375 14.5625 C14.33921875 14.43101562 14.33921875 14.43101562 13.21875 14.296875 C11.28119853 14.03762516 9.35690399 13.6829113 7.4375 13.3125 C3.32795924 12.93890539 0.86494441 13.65910092 -3 15 C-3 16.32 -3 17.64 -3 19 C2.54708182 20.76554975 8.04008268 22.22777207 13.75 23.375 C19.18432971 24.58618905 22.22931353 25.91508966 26 30 C27.55024464 33.10048928 27.28992015 35.57894218 27 39 C23.31193894 45.60777607 15.90934381 47.92719686 9 50 C8.67 52.31 8.34 54.62 8 57 C5.69 57 3.38 57 1 57 C1 54.36 1 51.72 1 49 C0.27554687 48.95101562 -0.44890625 48.90203125 -1.1953125 48.8515625 C-6.41458867 48.44793848 -11.09813658 47.98724193 -16 46 C-14.375 40.25 -14.375 40.25 -11 38 C-9.14763742 38.74094503 -7.29689954 39.48636494 -5.45703125 40.2578125 C0.33724199 42.00806992 7.20873735 41.70980135 13 40 C13 38.35 13 36.7 13 35 C11.42412109 34.61908203 11.42412109 34.61908203 9.81640625 34.23046875 C-12.18760429 28.86510728 -12.18760429 28.86510728 -17 23 C-18.44430855 20.11138291 -18.37688506 18.20352299 -18 15 C-15.75 12.3125 -15.75 12.3125 -13 10 C-12.4225 9.4225 -11.845 8.845 -11.25 8.25 C-7.72489268 6.29160705 -3.97512932 6.24632212 0 6 C0 4.02 0 2.04 0 0 Z " fill="#030302" transform="translate(322,191)"/>
<path d="M0 0 C0.4125 0.37511719 0.825 0.75023437 1.25 1.13671875 C16.14915661 14.33976601 35.28921835 20.13618088 55 21 C56.16660156 21.05285156 57.33320313 21.10570312 58.53515625 21.16015625 C77.24963759 21.59102018 97.1930633 18.92810367 113.36328125 8.91796875 C115 8 115 8 117 8 C117 7.34 117 6.68 117 6 C121.31818182 1.34090909 121.31818182 1.34090909 124 0 C123.78003236 5.38920716 122.63282247 8.3798723 118.90625 12.30859375 C100.45483295 28.68044536 71.21105851 29.0955651 48 28 C33.45376643 26.688815 13.86769208 22.33431388 4 10.8125 C-0.26059655 4.82103611 -0.26059655 4.82103611 0 0 Z " fill="#0A0804" transform="translate(263,288)"/>
<path d="M0 0 C0.598125 0.680625 1.19625 1.36125 1.8125 2.0625 C17.8017484 17.91700754 41.74884965 21.25946745 63.27050781 21.2487793 C85.09604739 20.95785582 106.77471567 16.34107265 123 1 C123.59375 2.8203125 123.59375 2.8203125 124 5 C118.75456258 15.05375506 109.40059034 19.45736277 99 23 C71.89317925 31.22704676 39.87879839 31.3626247 14.08984375 18.5546875 C7.67684237 14.94678393 4.06765549 11.10148323 0 5 C-0.125 2.3125 -0.125 2.3125 0 0 Z " fill="#090804" transform="translate(263,268)"/>
<path d="M0 0 C0.4125 0.37511719 0.825 0.75023437 1.25 1.13671875 C20.25005936 17.97382492 45.31169399 21.92066303 70 21 C89.84641517 19.60376979 109.87956959 14.90489877 124 0 C123.70882967 5.96899177 121.19651668 9.06344453 117 13 C101.39926439 26.28379468 74.56813288 28.44374639 55 27 C37.53697338 25.28280238 16.8996028 23.22209287 4 10 C1.71214603 6.75527629 0 4.07954409 0 0 Z " fill="#0B0905" transform="translate(263,333)"/>
<path d="M0 0 C0.4125 0.37946777 0.825 0.75893555 1.25 1.14990234 C5.54927481 4.98494184 9.90183076 7.95684357 15 10.625 C15.73331543 11.01107422 16.46663086 11.39714844 17.22216797 11.79492188 C31.07427496 18.81483241 45.51367797 20.23458723 60.875 20.25 C61.56808258 20.25100708 62.26116516 20.25201416 62.97525024 20.25305176 C81.04728101 20.23527745 98.55738257 18.29258486 114.0390625 8.171875 C116 7 116 7 118 7 C118 6.34 118 5.68 118 5 C119.95927063 3.2856382 121.95880212 1.61594832 124 0 C123.62347335 5.27137306 121.90672529 8.54129367 118 12 C95.87498842 27.76995506 65.04070731 29.10121231 39 25 C23.96647868 21.81025173 8.84602708 17.59026507 0 4 C0 2.68 0 1.36 0 0 Z " fill="#0C0A05" transform="translate(263,308)"/>
<path d="M0 0 C2.89531876 1.36364343 5.40326747 2.94855752 8 4.8125 C13.33812163 8.41222018 18.99119464 10.74468431 25 13 C26.19496094 13.44859375 26.19496094 13.44859375 27.4140625 13.90625 C36.72857683 17.19759782 46.16612879 18.46843939 56 19 C56.88816406 19.05414063 57.77632813 19.10828125 58.69140625 19.1640625 C80.70217267 19.85287738 106.12343546 14.817827 123 0 C123.495 0.99 123.495 0.99 124 2 C117.88443765 11.79484376 109.74834285 15.61920911 99.125 19.25 C98.40666992 19.49637207 97.68833984 19.74274414 96.94824219 19.99658203 C85.69895606 23.62514133 74.57725953 24.36239051 62.8125 24.3125 C62.13124054 24.31067719 61.44998108 24.30885437 60.74807739 24.30697632 C41.9514515 24.22238503 21.32378766 22.09624996 6 10 C0 3.55421687 0 3.55421687 0 0 Z " fill="#0B0905" transform="translate(263,252)"/>
<path d="M0 0 C0.9075 0.845625 1.815 1.69125 2.75 2.5625 C12.70708379 10.97246718 23.53062293 15.01819244 36 18 C37.010625 18.2475 38.02125 18.495 39.0625 18.75 C61.74959758 23.18877996 93.01345325 21.88861892 113.125 9 C116.41327178 6.60346294 119.21323327 3.95566168 122 1 C122.66 0.67 123.32 0.34 124 0 C122.27973928 6.30762263 117.75761645 10.28414977 112.36328125 13.640625 C87.04908289 27.02436673 54.27293711 27.7582074 27.22509766 19.70117188 C16.11241226 16.19934694 6.95589962 11.56436197 0 2 C0 1.34 0 0.68 0 0 Z " fill="#120F08" transform="translate(263,317)"/>
<path d="M0 0 C0.33 0 0.66 0 1 0 C1.86033267 5.44343462 2.71464282 10.88776821 3.56347656 16.33300781 C3.85285285 18.1838508 4.14385003 20.03444114 4.43652344 21.88476562 C4.85782248 24.55012691 5.27321248 27.21635353 5.6875 29.8828125 C5.81874268 30.70492218 5.94998535 31.52703186 6.08520508 32.37405396 C6.26539185 33.54458817 6.26539185 33.54458817 6.44921875 34.73876953 C6.55580811 35.41827667 6.66239746 36.09778381 6.7722168 36.79788208 C7.05362857 39.51845984 7 42.26490659 7 45 C2.71 45 -1.58 45 -6 45 C-6.18260191 40.89145692 -5.92245134 37.22459739 -5.125 33.1875 C-4.12567411 28.09938299 -3.5303188 23.02764926 -3 17.875 C-2.36806442 11.79041704 -1.53861314 5.93465067 0 0 Z " fill="#070603" transform="translate(242,435)"/>
<path d="M0 0 C9.5653473 0.43478851 18.59757974 5.73063173 25.44140625 12.21875 C29.2856645 16.612188 30.50473617 21.30972675 30.3046875 27 C29.79815175 30.32495259 28.49942146 33.00115707 27 36 C26.34 36 25.68 36 25 36 C24.75121094 36.598125 24.50242187 37.19625 24.24609375 37.8125 C20.57264875 44.26118088 11.99958945 47.03006366 5.3828125 49.43359375 C3 50 3 50 0 49 C1.32064453 48.31164062 1.32064453 48.31164062 2.66796875 47.609375 C3.82941406 46.99578125 4.99085938 46.3821875 6.1875 45.75 C7.33605469 45.14671875 8.48460937 44.5434375 9.66796875 43.921875 C15.8167213 40.3753495 20.16595023 36.5624513 23 30 C24.11125774 24.51076994 23.13675988 19.74360703 20.37890625 14.91015625 C15.17276928 7.69825546 8.09309882 4.22831332 0 1 C0 0.67 0 0.34 0 0 Z " fill="#140F07" transform="translate(352,194)"/>
<path d="M0 0 C-3.27295422 3.27295422 -7.78218226 4.83130419 -11.97070312 6.7265625 C-18.02311196 9.61559391 -22.62674861 13.46703875 -25 20 C-25.76726136 25.82583333 -25.77434008 31.41056404 -22.390625 36.37890625 C-17.42010284 42.17319472 -11.93193371 45.90538674 -5 49 C-9.92032836 50.64010945 -14.01017155 47.88388264 -18.53515625 45.8125 C-24.84703315 42.5106839 -29.74729476 37.89062779 -32 31 C-32.87246626 24.62805539 -32.66667536 19.21350958 -28.80078125 13.91015625 C-21.41738413 6.07830985 -11.06843377 -0.47606167 0 0 Z " fill="#140F07" transform="translate(300,193)"/>
<path d="M0 0 C0.66 0.33 1.32 0.66 2 1 C-7.24659014 7.79015258 -16.61624114 14.40145052 -26 21 C-26 18 -26 18 -24.32080078 16.03051758 C-20.18319885 12.41044234 -15.50792936 9.6268297 -10.875 6.6875 C-9.35326172 5.70040039 -9.35326172 5.70040039 -7.80078125 4.69335938 C-6.83269531 4.07654297 -5.86460937 3.45972656 -4.8671875 2.82421875 C-3.53856689 1.97476685 -3.53856689 1.97476685 -2.18310547 1.1081543 C-1.46268066 0.74246338 -0.74225586 0.37677246 0 0 Z " fill="#835E2D" transform="translate(513,585)"/>
<path d="M0 0 C6.15569222 2.35389606 11.90660148 5.46984621 17.75 8.5 C19.49216797 9.39138672 19.49216797 9.39138672 21.26953125 10.30078125 C22.37167969 10.87183594 23.47382812 11.44289063 24.609375 12.03125 C26.1248291 12.81338867 26.1248291 12.81338867 27.67089844 13.61132812 C30 15 30 15 31 17 C26.7538396 15.65881434 22.76265908 14.05787106 18.7265625 12.1796875 C17.57285156 11.64472656 16.41914063 11.10976562 15.23046875 10.55859375 C14.04066406 10.00300781 12.85085938 9.44742188 11.625 8.875 C10.39987642 8.30569502 9.17461721 7.73668183 7.94921875 7.16796875 C4.96480066 5.7815068 1.98179297 4.3920964 -1 3 C-0.67 2.01 -0.34 1.02 0 0 Z " fill="#674720" transform="translate(491,110)"/>
<path d="M0 0 C5.80522616 2.18602741 10.97265251 5.31148563 16.3125 8.4375 C17.33923828 9.02337891 18.36597656 9.60925781 19.42382812 10.21289062 C20.39384766 10.78072266 21.36386719 11.34855469 22.36328125 11.93359375 C23.25313721 12.44978271 24.14299316 12.96597168 25.05981445 13.49780273 C25.70007568 13.99352783 26.34033691 14.48925293 27 15 C27 15.99 27 16.98 27 18 C23.18000654 16.61744017 20.05028638 14.84720863 16.69921875 12.55859375 C15.72275391 11.89279297 14.74628906 11.22699219 13.74023438 10.54101562 C12.73283203 9.84685547 11.72542969 9.15269531 10.6875 8.4375 C9.66076172 7.73947266 8.63402344 7.04144531 7.57617188 6.32226562 C1.97901267 2.48793264 1.97901267 2.48793264 0 1 C0 0.67 0 0.34 0 0 Z " fill="#6E4D23" transform="translate(132,591)"/>
<path d="M0 0 C0.66 0.33 1.32 0.66 2 1 C-1.06891573 4.42101776 -4.10105027 6.27703786 -8.2265625 8.26953125 C-8.81545258 8.55479172 -9.40434265 8.84005219 -10.01107788 9.13395691 C-11.24791784 9.73039191 -12.48678298 10.3226437 -13.72753906 10.91088867 C-15.63179925 11.81573078 -17.52694477 12.73791447 -19.421875 13.66210938 C-20.6271001 14.24063463 -21.83281285 14.81814529 -23.0390625 15.39453125 C-24.13428223 15.91893799 -25.22950195 16.44334473 -26.35791016 16.98364258 C-27.2297998 17.31904053 -28.10168945 17.65443848 -29 18 C-29.66 17.67 -30.32 17.34 -31 17 C-30.38068604 16.66266846 -29.76137207 16.32533691 -29.12329102 15.9777832 C-26.26948503 14.42307205 -23.41599093 12.86778931 -20.5625 11.3125 C-19.58861328 10.78205078 -18.61472656 10.25160156 -17.61132812 9.70507812 C-16.64775391 9.17978516 -15.68417969 8.65449219 -14.69140625 8.11328125 C-13.25885498 7.33525146 -13.25885498 7.33525146 -11.79736328 6.54150391 C-9.96674949 5.53273314 -8.14674866 4.50439705 -6.33935547 3.45458984 C-5.5351416 2.98875488 -4.73092773 2.52291992 -3.90234375 2.04296875 C-3.19456787 1.62426514 -2.48679199 1.20556152 -1.75756836 0.77416992 C-1.1775708 0.51869385 -0.59757324 0.26321777 0 0 Z " fill="#6C4B22" transform="translate(159,109)"/>
<path d="M0 0 C0.33 0.66 0.66 1.32 1 2 C-9.0933113 14.36353938 -9.0933113 14.36353938 -17 16 C-15.56641757 12.43520947 -13.94340555 11.03793177 -10.6875 9.0625 C-6.92748059 6.67691603 -3.99735439 4.27835636 -1 1 C-0.67 0.67 -0.34 0.34 0 0 Z " fill="#161109" transform="translate(386,317)"/>
<path d="M0 0 C0.66 0.33 1.32 0.66 2 1 C0.96518246 3.90851084 0.29017693 4.84878104 -2.49609375 6.30078125 C-3.46675781 6.63464844 -4.43742187 6.96851563 -5.4375 7.3125 C-6.40558594 7.65925781 -7.37367188 8.00601563 -8.37109375 8.36328125 C-11 9 -11 9 -14 8 C-13.07316406 7.50628906 -12.14632813 7.01257813 -11.19140625 6.50390625 C-9.98172045 5.85686501 -8.77208778 5.20972446 -7.5625 4.5625 C-6.95083984 4.23701172 -6.33917969 3.91152344 -5.70898438 3.57617188 C-2.66283794 2.06284858 -2.66283794 2.06284858 0 0 Z " fill="#342B19" transform="translate(366,235)"/>
<path d="M0 0 C3.7910119 1.44950455 7.3874638 3.15172566 11 5 C11 5.66 11 6.32 11 7 C6.61110675 6.33501617 3.0188515 4.81242323 -1 3 C-0.67 2.01 -0.34 1.02 0 0 Z " fill="#84602E" transform="translate(491,110)"/>
<path d="M0 0 C0.66 0.33 1.32 0.66 2 1 C-0.47585238 3.65269897 -2.59026101 5.68010103 -6 7 C-6.99 7 -7.98 7 -9 7 C-9 6.34 -9 5.68 -9 5 C-7.54735962 4.1361871 -6.0876837 3.28419546 -4.625 2.4375 C-3.40683594 1.72400391 -3.40683594 1.72400391 -2.1640625 0.99609375 C-1.44992188 0.66738281 -0.73578125 0.33867188 0 0 Z " fill="#8F6832" transform="translate(159,109)"/>
<path d="M0 0 C3.96 1.98 3.96 1.98 8 4 C8 4.99 8 5.98 8 7 C5.0280615 5.87548273 2.66559313 4.77706209 0 3 C0 2.01 0 1.02 0 0 Z " fill="#87622F" transform="translate(151,602)"/>
<path d="M0 0 C-2.22825644 2.22825644 -3.65761628 2.69239369 -6.625 3.625 C-7.44226563 3.88539063 -8.25953125 4.14578125 -9.1015625 4.4140625 C-9.72804688 4.60742188 -10.35453125 4.80078125 -11 5 C-11 4.01 -11 3.02 -11 2 C-7.17679443 0.57741188 -4.08718695 -0.24042276 0 0 Z " fill="#463B22" transform="translate(300,193)"/>
<path d="M0 0 C0.33 0.66 0.66 1.32 1 2 C-1.31 4.64 -3.62 7.28 -6 10 C-6.66 9.34 -7.32 8.68 -8 8 C-6.50260417 6.79557292 -5.00520833 5.59114583 -3.5078125 4.38671875 C-1.74707893 2.87729455 -1.74707893 2.87729455 0 0 Z " fill="#271D0E" transform="translate(386,317)"/>
</svg>
